<svg version="1.2" baseProfile="tiny-ps" xmlns="http://www.w3.org/2000/svg" viewBox="0 0 866 439" width="866" height="439">
	<title>Shape 19</title>
	<style>
		tspan { white-space:pre }
		.shp0 { fill: #ffffff } 
	</style>
	<path id="Shape 19" class="shp0" d="M417.94 252.82C417.94 254.54 416.54 255.94 414.82 255.94C413.1 255.94 411.7 254.54 411.7 252.82C411.7 251.1 413.1 249.7 414.82 249.7C416.54 249.7 417.94 251.1 417.94 252.82ZM417.94 298.58C417.94 300.31 416.54 301.7 414.82 301.7C413.1 301.7 411.7 300.31 411.7 298.58C411.7 296.86 413.1 295.46 414.82 295.46C416.54 295.46 417.94 296.86 417.94 298.58ZM417.94 344.35C417.94 346.07 416.54 347.47 414.82 347.47C413.1 347.47 411.7 346.07 411.7 344.35C411.7 342.63 413.1 341.23 414.82 341.23C416.54 341.23 417.94 342.63 417.94 344.35ZM417.94 390.11C417.94 391.84 416.54 393.23 414.82 393.23C413.1 393.23 411.7 391.84 411.7 390.11C411.7 388.39 413.1 386.99 414.82 386.99C416.54 386.99 417.94 388.39 417.94 390.11ZM417.94 435.88C417.94 437.6 416.54 439 414.82 439C413.1 439 411.7 437.6 411.7 435.88C411.7 434.16 413.1 432.76 414.82 432.76C416.54 432.76 417.94 434.16 417.94 435.88ZM372.2 252.82C372.2 254.54 370.8 255.94 369.08 255.94C367.35 255.94 365.96 254.54 365.96 252.82C365.96 251.1 367.35 249.7 369.08 249.7C370.8 249.7 372.2 251.1 372.2 252.82ZM372.2 298.58C372.2 300.31 370.8 301.7 369.08 301.7C367.35 301.7 365.96 300.31 365.96 298.58C365.96 296.86 367.35 295.46 369.08 295.46C370.8 295.46 372.2 296.86 372.2 298.58ZM372.2 344.35C372.2 346.07 370.8 347.47 369.08 347.47C367.35 347.47 365.96 346.07 365.96 344.35C365.96 342.63 367.35 341.23 369.08 341.23C370.8 341.23 372.2 342.63 372.2 344.35ZM372.2 390.11C372.2 391.84 370.8 393.23 369.08 393.23C367.35 393.23 365.96 391.84 365.96 390.11C365.96 388.39 367.35 386.99 369.08 386.99C370.8 386.99 372.2 388.39 372.2 390.11ZM372.2 435.88C372.2 437.6 370.8 439 369.08 439C367.35 439 365.96 437.6 365.96 435.88C365.96 434.16 367.35 432.76 369.08 432.76C370.8 432.76 372.2 434.16 372.2 435.88ZM326.45 252.82C326.45 254.54 325.05 255.94 323.33 255.94C321.61 255.94 320.21 254.54 320.21 252.82C320.21 251.1 321.61 249.7 323.33 249.7C325.05 249.7 326.45 251.1 326.45 252.82ZM326.45 298.58C326.45 300.31 325.05 301.7 323.33 301.7C321.61 301.7 320.21 300.31 320.21 298.58C320.21 296.86 321.61 295.46 323.33 295.46C325.05 295.46 326.45 296.86 326.45 298.58ZM326.45 344.35C326.45 346.07 325.05 347.47 323.33 347.47C321.61 347.47 320.21 346.07 320.21 344.35C320.21 342.63 321.61 341.23 323.33 341.23C325.05 341.23 326.45 342.63 326.45 344.35ZM326.45 390.11C326.45 391.84 325.05 393.23 323.33 393.23C321.61 393.23 320.21 391.84 320.21 390.11C320.21 388.39 321.61 386.99 323.33 386.99C325.05 386.99 326.45 388.39 326.45 390.11ZM326.45 435.88C326.45 437.6 325.05 439 323.33 439C321.61 439 320.21 437.6 320.21 435.88C320.21 434.16 321.61 432.76 323.33 432.76C325.05 432.76 326.45 434.16 326.45 435.88ZM280.71 252.82C280.71 254.54 279.31 255.94 277.59 255.94C275.86 255.94 274.47 254.54 274.47 252.82C274.47 251.1 275.86 249.7 277.59 249.7C279.31 249.7 280.71 251.1 280.71 252.82ZM280.71 298.58C280.71 300.31 279.31 301.7 277.59 301.7C275.86 301.7 274.47 300.31 274.47 298.58C274.47 296.86 275.86 295.46 277.59 295.46C279.31 295.46 280.71 296.86 280.71 298.58ZM280.71 344.35C280.71 346.07 279.31 347.47 277.59 347.47C275.86 347.47 274.47 346.07 274.47 344.35C274.47 342.63 275.86 341.23 277.59 341.23C279.31 341.23 280.71 342.63 280.71 344.35ZM280.71 390.11C280.71 391.84 279.31 393.23 277.59 393.23C275.86 393.23 274.47 391.84 274.47 390.11C274.47 388.39 275.86 386.99 277.59 386.99C279.31 386.99 280.71 388.39 280.71 390.11ZM280.71 435.88C280.71 437.6 279.31 439 277.59 439C275.86 439 274.47 437.6 274.47 435.88C274.47 434.16 275.86 432.76 277.59 432.76C279.31 432.76 280.71 434.16 280.71 435.88ZM234.96 252.82C234.96 254.54 233.57 255.94 231.84 255.94C230.12 255.94 228.72 254.54 228.72 252.82C228.72 251.1 230.12 249.7 231.84 249.7C233.57 249.7 234.96 251.1 234.96 252.82ZM234.96 298.58C234.96 300.31 233.57 301.7 231.84 301.7C230.12 301.7 228.72 300.31 228.72 298.58C228.72 296.86 230.12 295.46 231.84 295.46C233.57 295.46 234.96 296.86 234.96 298.58ZM234.96 344.35C234.96 346.07 233.57 347.47 231.84 347.47C230.12 347.47 228.72 346.07 228.72 344.35C228.72 342.63 230.12 341.23 231.84 341.23C233.57 341.23 234.96 342.63 234.96 344.35ZM234.96 390.11C234.96 391.84 233.57 393.23 231.84 393.23C230.12 393.23 228.72 391.84 228.72 390.11C228.72 388.39 230.12 386.99 231.84 386.99C233.57 386.99 234.96 388.39 234.96 390.11ZM234.96 435.88C234.96 437.6 233.57 439 231.84 439C230.12 439 228.72 437.6 228.72 435.88C228.72 434.16 230.12 432.76 231.84 432.76C233.57 432.76 234.96 434.16 234.96 435.88ZM189.22 252.82C189.22 254.54 187.82 255.94 186.1 255.94C184.38 255.94 182.98 254.54 182.98 252.82C182.98 251.1 184.38 249.7 186.1 249.7C187.82 249.7 189.22 251.1 189.22 252.82ZM189.22 298.58C189.22 300.31 187.82 301.7 186.1 301.7C184.38 301.7 182.98 300.31 182.98 298.58C182.98 296.86 184.38 295.46 186.1 295.46C187.82 295.46 189.22 296.86 189.22 298.58ZM189.22 344.35C189.22 346.07 187.82 347.47 186.1 347.47C184.38 347.47 182.98 346.07 182.98 344.35C182.98 342.63 184.38 341.23 186.1 341.23C187.82 341.23 189.22 342.63 189.22 344.35ZM189.22 390.11C189.22 391.84 187.82 393.23 186.1 393.23C184.38 393.23 182.98 391.84 182.98 390.11C182.98 388.39 184.38 386.99 186.1 386.99C187.82 386.99 189.22 388.39 189.22 390.11ZM189.22 435.88C189.22 437.6 187.82 439 186.1 439C184.38 439 182.98 437.6 182.98 435.88C182.98 434.16 184.38 432.76 186.1 432.76C187.82 432.76 189.22 434.16 189.22 435.88ZM143.47 252.82C143.47 254.54 142.08 255.94 140.35 255.94C138.63 255.94 137.23 254.54 137.23 252.82C137.23 251.1 138.63 249.7 140.35 249.7C142.08 249.7 143.47 251.1 143.47 252.82ZM143.47 298.58C143.47 300.31 142.08 301.7 140.35 301.7C138.63 301.7 137.23 300.31 137.23 298.58C137.23 296.86 138.63 295.46 140.35 295.46C142.08 295.46 143.47 296.86 143.47 298.58ZM143.47 344.35C143.47 346.07 142.08 347.47 140.35 347.47C138.63 347.47 137.23 346.07 137.23 344.35C137.23 342.63 138.63 341.23 140.35 341.23C142.08 341.23 143.47 342.63 143.47 344.35ZM143.47 390.11C143.47 391.84 142.08 393.23 140.35 393.23C138.63 393.23 137.23 391.84 137.23 390.11C137.23 388.39 138.63 386.99 140.35 386.99C142.08 386.99 143.47 388.39 143.47 390.11ZM143.47 435.88C143.47 437.6 142.08 439 140.35 439C138.63 439 137.23 437.6 137.23 435.88C137.23 434.16 138.63 432.76 140.35 432.76C142.08 432.76 143.47 434.16 143.47 435.88ZM97.73 252.82C97.73 254.54 96.33 255.94 94.61 255.94C92.89 255.94 91.49 254.54 91.49 252.82C91.49 251.1 92.89 249.7 94.61 249.7C96.33 249.7 97.73 251.1 97.73 252.82ZM97.73 298.58C97.73 300.31 96.33 301.7 94.61 301.7C92.89 301.7 91.49 300.31 91.49 298.58C91.49 296.86 92.89 295.46 94.61 295.46C96.33 295.46 97.73 296.86 97.73 298.58ZM97.73 344.35C97.73 346.07 96.33 347.47 94.61 347.47C92.89 347.47 91.49 346.07 91.49 344.35C91.49 342.63 92.89 341.23 94.61 341.23C96.33 341.23 97.73 342.63 97.73 344.35ZM97.73 390.11C97.73 391.84 96.33 393.23 94.61 393.23C92.89 393.23 91.49 391.84 91.49 390.11C91.49 388.39 92.89 386.99 94.61 386.99C96.33 386.99 97.73 388.39 97.73 390.11ZM97.73 435.88C97.73 437.6 96.33 439 94.61 439C92.89 439 91.49 437.6 91.49 435.88C91.49 434.16 92.89 432.76 94.61 432.76C96.33 432.76 97.73 434.16 97.73 435.88ZM51.98 252.82C51.98 254.54 50.59 255.94 48.86 255.94C47.14 255.94 45.74 254.54 45.74 252.82C45.74 251.1 47.14 249.7 48.86 249.7C50.59 249.7 51.98 251.1 51.98 252.82ZM51.98 298.58C51.98 300.31 50.59 301.7 48.86 301.7C47.14 301.7 45.74 300.31 45.74 298.58C45.74 296.86 47.14 295.46 48.86 295.46C50.59 295.46 51.98 296.86 51.98 298.58ZM51.98 344.35C51.98 346.07 50.59 347.47 48.86 347.47C47.14 347.47 45.74 346.07 45.74 344.35C45.74 342.63 47.14 341.23 48.86 341.23C50.59 341.23 51.98 342.63 51.98 344.35ZM51.98 390.11C51.98 391.84 50.59 393.23 48.86 393.23C47.14 393.23 45.74 391.84 45.74 390.11C45.74 388.39 47.14 386.99 48.86 386.99C50.59 386.99 51.98 388.39 51.98 390.11ZM51.98 435.88C51.98 437.6 50.59 439 48.86 439C47.14 439 45.74 437.6 45.74 435.88C45.74 434.16 47.14 432.76 48.86 432.76C50.59 432.76 51.98 434.16 51.98 435.88ZM6.24 252.82C6.24 254.54 4.84 255.94 3.12 255.94C1.4 255.94 0 254.54 0 252.82C0 251.1 1.4 249.7 3.12 249.7C4.84 249.7 6.24 251.1 6.24 252.82ZM6.24 298.58C6.24 300.31 4.84 301.7 3.12 301.7C1.4 301.7 0 300.31 0 298.58C0 296.86 1.4 295.46 3.12 295.46C4.84 295.46 6.24 296.86 6.24 298.58ZM6.24 344.35C6.24 346.07 4.84 347.47 3.12 347.47C1.4 347.47 0 346.07 0 344.35C0 342.63 1.4 341.23 3.12 341.23C4.84 341.23 6.24 342.63 6.24 344.35ZM6.24 390.11C6.24 391.84 4.84 393.23 3.12 393.23C1.4 393.23 0 391.84 0 390.11C0 388.39 1.4 386.99 3.12 386.99C4.84 386.99 6.24 388.39 6.24 390.11ZM6.24 435.88C6.24 437.6 4.84 439 3.12 439C1.4 439 0 437.6 0 435.88C0 434.16 1.4 432.76 3.12 432.76C4.84 432.76 6.24 434.16 6.24 435.88ZM866.01 3.8C866.01 5.53 864.62 6.92 862.89 6.92C861.17 6.92 859.77 5.53 859.77 3.8C859.77 2.08 861.17 0.68 862.89 0.68C864.62 0.68 866.01 2.08 866.01 3.8ZM866.01 49.57C866.01 51.29 864.62 52.69 862.89 52.69C861.17 52.69 859.77 51.29 859.77 49.57C859.77 47.84 861.17 46.45 862.89 46.45C864.62 46.45 866.01 47.84 866.01 49.57ZM866.01 95.33C866.01 97.05 864.62 98.45 862.89 98.45C861.17 98.45 859.77 97.05 859.77 95.33C859.77 93.61 861.17 92.21 862.89 92.21C864.62 92.21 866.01 93.61 866.01 95.33ZM866.01 141.1C866.01 142.82 864.62 144.22 862.89 144.22C861.17 144.22 859.77 142.82 859.77 141.1C859.77 139.37 861.17 137.98 862.89 137.98C864.62 137.98 866.01 139.37 866.01 141.1ZM866.01 186.86C866.01 188.58 864.62 189.98 862.89 189.98C861.17 189.98 859.77 188.58 859.77 186.86C859.77 185.14 861.17 183.74 862.89 183.74C864.62 183.74 866.01 185.14 866.01 186.86ZM820.27 3.8C820.27 5.52 818.87 6.92 817.15 6.92C815.42 6.92 814.03 5.52 814.03 3.8C814.03 2.08 815.42 0.68 817.15 0.68C818.87 0.68 820.27 2.08 820.27 3.8ZM820.27 49.57C820.27 51.29 818.87 52.69 817.15 52.69C815.42 52.69 814.03 51.29 814.03 49.57C814.03 47.84 815.42 46.45 817.15 46.45C818.87 46.45 820.27 47.84 820.27 49.57ZM820.27 95.33C820.27 97.05 818.87 98.45 817.15 98.45C815.42 98.45 814.03 97.05 814.03 95.33C814.03 93.61 815.42 92.21 817.15 92.21C818.87 92.21 820.27 93.61 820.27 95.33ZM820.27 141.1C820.27 142.82 818.87 144.22 817.15 144.22C815.42 144.22 814.03 142.82 814.03 141.1C814.03 139.37 815.42 137.98 817.15 137.98C818.87 137.98 820.27 139.37 820.27 141.1ZM820.27 186.86C820.27 188.58 818.87 189.98 817.15 189.98C815.42 189.98 814.03 188.58 814.03 186.86C814.03 185.14 815.42 183.74 817.15 183.74C818.87 183.74 820.27 185.14 820.27 186.86ZM774.52 3.8C774.52 5.52 773.13 6.92 771.4 6.92C769.68 6.92 768.28 5.52 768.28 3.8C768.28 2.08 769.68 0.68 771.4 0.68C773.13 0.68 774.52 2.08 774.52 3.8ZM774.52 49.57C774.52 51.29 773.13 52.69 771.4 52.69C769.68 52.69 768.28 51.29 768.28 49.57C768.28 47.84 769.68 46.45 771.4 46.45C773.13 46.45 774.52 47.84 774.52 49.57ZM774.52 95.33C774.52 97.05 773.13 98.45 771.4 98.45C769.68 98.45 768.28 97.05 768.28 95.33C768.28 93.61 769.68 92.21 771.4 92.21C773.13 92.21 774.52 93.61 774.52 95.33ZM774.52 141.1C774.52 142.82 773.13 144.22 771.4 144.22C769.68 144.22 768.28 142.82 768.28 141.1C768.28 139.37 769.68 137.98 771.4 137.98C773.13 137.98 774.52 139.37 774.52 141.1ZM774.52 186.86C774.52 188.58 773.13 189.98 771.4 189.98C769.68 189.98 768.28 188.58 768.28 186.86C768.28 185.14 769.68 183.74 771.4 183.74C773.13 183.74 774.52 185.14 774.52 186.86ZM728.78 3.8C728.78 5.52 727.38 6.92 725.66 6.92C723.94 6.92 722.54 5.52 722.54 3.8C722.54 2.08 723.94 0.68 725.66 0.68C727.38 0.68 728.78 2.08 728.78 3.8ZM728.78 49.57C728.78 51.29 727.38 52.69 725.66 52.69C723.94 52.69 722.54 51.29 722.54 49.57C722.54 47.84 723.94 46.45 725.66 46.45C727.38 46.45 728.78 47.84 728.78 49.57ZM728.78 95.33C728.78 97.05 727.38 98.45 725.66 98.45C723.94 98.45 722.54 97.05 722.54 95.33C722.54 93.61 723.94 92.21 725.66 92.21C727.38 92.21 728.78 93.61 728.78 95.33ZM728.78 141.1C728.78 142.82 727.38 144.22 725.66 144.22C723.94 144.22 722.54 142.82 722.54 141.1C722.54 139.37 723.94 137.98 725.66 137.98C727.38 137.98 728.78 139.37 728.78 141.1ZM728.78 186.86C728.78 188.58 727.38 189.98 725.66 189.98C723.94 189.98 722.54 188.58 722.54 186.86C722.54 185.14 723.94 183.74 725.66 183.74C727.38 183.74 728.78 185.14 728.78 186.86ZM683.03 3.8C683.03 5.52 681.64 6.92 679.91 6.92C678.19 6.92 676.79 5.52 676.79 3.8C676.79 2.08 678.19 0.68 679.91 0.68C681.64 0.68 683.03 2.08 683.03 3.8ZM683.03 49.57C683.03 51.29 681.64 52.69 679.91 52.69C678.19 52.69 676.79 51.29 676.79 49.57C676.79 47.84 678.19 46.45 679.91 46.45C681.64 46.45 683.03 47.84 683.03 49.57ZM683.03 95.33C683.03 97.05 681.64 98.45 679.91 98.45C678.19 98.45 676.79 97.05 676.79 95.33C676.79 93.61 678.19 92.21 679.91 92.21C681.64 92.21 683.03 93.61 683.03 95.33ZM683.03 141.1C683.03 142.82 681.64 144.22 679.91 144.22C678.19 144.22 676.79 142.82 676.79 141.1C676.79 139.37 678.19 137.98 679.91 137.98C681.64 137.98 683.03 139.37 683.03 141.1ZM683.03 186.86C683.03 188.58 681.64 189.98 679.91 189.98C678.19 189.98 676.79 188.58 676.79 186.86C676.79 185.14 678.19 183.74 679.91 183.74C681.64 183.74 683.03 185.14 683.03 186.86ZM637.29 3.8C637.29 5.52 635.89 6.92 634.17 6.92C632.45 6.92 631.05 5.52 631.05 3.8C631.05 2.08 632.45 0.68 634.17 0.68C635.89 0.68 637.29 2.08 637.29 3.8ZM637.29 49.57C637.29 51.29 635.89 52.69 634.17 52.69C632.45 52.69 631.05 51.29 631.05 49.57C631.05 47.84 632.45 46.45 634.17 46.45C635.89 46.45 637.29 47.84 637.29 49.57ZM637.29 95.33C637.29 97.05 635.89 98.45 634.17 98.45C632.45 98.45 631.05 97.05 631.05 95.33C631.05 93.61 632.45 92.21 634.17 92.21C635.89 92.21 637.29 93.61 637.29 95.33ZM637.29 141.1C637.29 142.82 635.89 144.22 634.17 144.22C632.45 144.22 631.05 142.82 631.05 141.1C631.05 139.37 632.45 137.98 634.17 137.98C635.89 137.98 637.29 139.37 637.29 141.1ZM637.29 186.86C637.29 188.58 635.89 189.98 634.17 189.98C632.45 189.98 631.05 188.58 631.05 186.86C631.05 185.14 632.45 183.74 634.17 183.74C635.89 183.74 637.29 185.14 637.29 186.86ZM591.54 3.8C591.54 5.52 590.15 6.92 588.42 6.92C586.7 6.92 585.3 5.52 585.3 3.8C585.3 2.08 586.7 0.68 588.42 0.68C590.15 0.68 591.54 2.08 591.54 3.8ZM591.54 49.57C591.54 51.29 590.15 52.69 588.42 52.69C586.7 52.69 585.3 51.29 585.3 49.57C585.3 47.84 586.7 46.45 588.42 46.45C590.15 46.45 591.54 47.84 591.54 49.57ZM591.54 95.33C591.54 97.05 590.15 98.45 588.42 98.45C586.7 98.45 585.3 97.05 585.3 95.33C585.3 93.61 586.7 92.21 588.42 92.21C590.15 92.21 591.54 93.61 591.54 95.33ZM591.54 141.1C591.54 142.82 590.15 144.22 588.42 144.22C586.7 144.22 585.3 142.82 585.3 141.1C585.3 139.37 586.7 137.98 588.42 137.98C590.15 137.98 591.54 139.37 591.54 141.1ZM591.54 186.86C591.54 188.58 590.15 189.98 588.42 189.98C586.7 189.98 585.3 188.58 585.3 186.86C585.3 185.14 586.7 183.74 588.42 183.74C590.15 183.74 591.54 185.14 591.54 186.86ZM545.8 3.8C545.8 5.52 544.4 6.92 542.68 6.92C540.96 6.92 539.56 5.52 539.56 3.8C539.56 2.08 540.96 0.68 542.68 0.68C544.4 0.68 545.8 2.08 545.8 3.8ZM545.8 49.57C545.8 51.29 544.4 52.69 542.68 52.69C540.96 52.69 539.56 51.29 539.56 49.57C539.56 47.84 540.96 46.45 542.68 46.45C544.4 46.45 545.8 47.84 545.8 49.57ZM545.8 95.33C545.8 97.05 544.4 98.45 542.68 98.45C540.96 98.45 539.56 97.05 539.56 95.33C539.56 93.61 540.96 92.21 542.68 92.21C544.4 92.21 545.8 93.61 545.8 95.33ZM545.8 141.1C545.8 142.82 544.4 144.22 542.68 144.22C540.96 144.22 539.56 142.82 539.56 141.1C539.56 139.37 540.96 137.98 542.68 137.98C544.4 137.98 545.8 139.37 545.8 141.1ZM545.8 186.86C545.8 188.58 544.4 189.98 542.68 189.98C540.96 189.98 539.56 188.58 539.56 186.86C539.56 185.14 540.96 183.74 542.68 183.74C544.4 183.74 545.8 185.14 545.8 186.86ZM500.05 3.8C500.05 5.52 498.66 6.92 496.93 6.92C495.21 6.92 493.81 5.52 493.81 3.8C493.81 2.08 495.21 0.68 496.93 0.68C498.66 0.68 500.05 2.08 500.05 3.8ZM500.05 49.57C500.05 51.29 498.66 52.69 496.93 52.69C495.21 52.69 493.81 51.29 493.81 49.57C493.81 47.84 495.21 46.45 496.93 46.45C498.66 46.45 500.05 47.84 500.05 49.57ZM500.05 95.33C500.05 97.05 498.66 98.45 496.93 98.45C495.21 98.45 493.81 97.05 493.81 95.33C493.81 93.61 495.21 92.21 496.93 92.21C498.66 92.21 500.05 93.61 500.05 95.33ZM500.05 141.1C500.05 142.82 498.66 144.22 496.93 144.22C495.21 144.22 493.82 142.82 493.82 141.1C493.82 139.37 495.21 137.98 496.93 137.98C498.66 137.98 500.05 139.37 500.05 141.1ZM500.05 186.86C500.05 188.58 498.66 189.98 496.93 189.98C495.21 189.98 493.81 188.58 493.81 186.86C493.81 185.14 495.21 183.74 496.93 183.74C498.66 183.74 500.05 185.14 500.05 186.86ZM454.31 3.8C454.31 5.52 452.91 6.92 451.19 6.92C449.47 6.92 448.07 5.52 448.07 3.8C448.07 2.08 449.47 0.68 451.19 0.68C452.91 0.68 454.31 2.08 454.31 3.8ZM454.31 49.57C454.31 51.29 452.91 52.69 451.19 52.69C449.47 52.69 448.07 51.29 448.07 49.57C448.07 47.84 449.47 46.45 451.19 46.45C452.91 46.45 454.31 47.84 454.31 49.57ZM454.31 95.33C454.31 97.05 452.91 98.45 451.19 98.45C449.47 98.45 448.07 97.05 448.07 95.33C448.07 93.61 449.47 92.21 451.19 92.21C452.91 92.21 454.31 93.61 454.31 95.33ZM454.31 141.1C454.31 142.82 452.91 144.22 451.19 144.22C449.47 144.22 448.07 142.82 448.07 141.1C448.07 139.37 449.47 137.98 451.19 137.98C452.91 137.98 454.31 139.37 454.31 141.1ZM454.31 186.86C454.31 188.58 452.91 189.98 451.19 189.98C449.47 189.98 448.07 188.58 448.07 186.86C448.07 185.14 449.47 183.74 451.19 183.74C452.91 183.74 454.31 185.14 454.31 186.86Z" />
</svg>